<?xml version="1.0" encoding="UTF-8" standalone="no"?>
<!DOCTYPE svg PUBLIC "-//W3C//DTD SVG 1.1//EN" "http://www.w3.org/Graphics/SVG/1.1/DTD/svg11.dtd">
<svg width="100%" height="100%" viewBox="0 0 1458 1476" version="1.1" xmlns="http://www.w3.org/2000/svg" xmlns:xlink="http://www.w3.org/1999/xlink" xml:space="preserve" xmlns:serif="http://www.serif.com/" style="fill-rule:evenodd;clip-rule:evenodd;stroke-linejoin:round;stroke-miterlimit:2;">
    <g transform="matrix(1,0,0,1,-526.953,-1029.98)">
        <g id="Schriftzug" transform="matrix(4.16667,0,0,4.16667,0,0)">
            <g transform="matrix(1,0,0,1,272.659,526.178)">
                <path d="M0,-209.976C-1.704,-214.092 -4.447,-231.109 0.342,-234.462C4.491,-237.364 14.401,-239.097 26.853,-239.097C27.601,-239.097 28.201,-239.091 28.619,-239.086L29.177,-239.082L29.734,-239.086C30.152,-239.091 30.753,-239.097 31.502,-239.097C43.951,-239.097 53.862,-237.364 58.015,-234.46C62.8,-231.111 60.063,-214.096 58.36,-209.975C57.586,-208.805 57.426,-207.324 57.977,-206.016C59.161,-203.201 59.604,-202.147 87.13,-202.147C97.105,-202.147 107.678,-202.317 114.674,-202.429C117.319,-202.472 119.406,-202.505 120.678,-202.517C124.271,-199.27 135.724,-187.004 140.43,-180.802C134.019,-179.525 122.175,-178.366 109.839,-177.393L109.839,-196.388L109.855,-200.628L104.404,-199.016L99.046,-197.51L93.764,-196.107L88.559,-194.831L83.404,-193.632L78.326,-192.56L73.273,-191.565L68.298,-190.698L63.322,-189.907L58.424,-189.243L53.524,-188.656L48.676,-188.197L43.828,-187.84L39.005,-187.584L34.183,-187.432L29.36,-187.381L24.537,-187.432L19.715,-187.584L14.892,-187.84L10.019,-188.197L5.145,-188.656L0.245,-189.243L-4.705,-189.907L-9.681,-190.698L-14.708,-191.565L-19.785,-192.56L-24.914,-193.632L-30.12,-194.831L-35.376,-196.107L-40.709,-197.51L-46.093,-199.016L-51.604,-200.623L-51.604,-177.402C-63.898,-178.374 -75.687,-179.529 -82.076,-180.802C-77.368,-187.006 -65.912,-199.273 -62.318,-202.517C-61.045,-202.505 -58.958,-202.472 -56.311,-202.429C-49.316,-202.317 -38.746,-202.147 -28.771,-202.147C-1.246,-202.147 -0.802,-203.2 0.384,-206.015C0.935,-207.323 0.776,-208.804 0,-209.976M106.063,-154.066C101.786,-151.929 97.48,-149.588 93.281,-147.18L92.281,-149.08L97.691,-159.057L86.77,-159.057L80.621,-169.033L74.879,-158.98L64.265,-158.98L69.444,-149.08L64.137,-138.721L74.879,-138.721L76.01,-136.675C72.226,-134.265 68.772,-132.009 65.806,-130.073L65.592,-130.249L63.983,-131.806L62.555,-133.464L61.305,-135.2L60.207,-137.037L59.263,-138.899L58.497,-140.838L57.885,-142.803L57.451,-144.793L57.196,-146.834L57.105,-148.621C57.331,-150.753 57.563,-152.862 57.8,-154.877L57.809,-154.923L58.37,-156.888L59.11,-158.801L60.028,-160.689L61.126,-162.501L62.377,-164.236L63.805,-165.869L65.387,-167.451L67.147,-168.88L69.087,-170.232L69.84,-170.659C78.674,-171.26 92.509,-172.065 106.063,-173.083L106.063,-154.066ZM136.307,-160.046C136.65,-160.061 136.987,-160.069 137.322,-160.069C153.492,-160.069 159.119,-141.209 159.707,-139.059L159.922,-138.278C161.705,-131.811 165.879,-116.669 164.261,-93.312C163.499,-82.316 155.907,-37.338 132.681,-18.169C128.42,-14.656 121.195,-11.109 114.659,-11.109C111.896,-11.109 109.428,-11.746 107.324,-13C103.547,-15.255 94.523,-22.155 85.626,-29.218L86.671,-30.459L89.4,-33.955L92.003,-37.604L94.504,-41.406L96.826,-45.361L98.995,-49.443L101.011,-53.679L102.848,-58.067L104.481,-62.583L105.936,-67.279L107.16,-72.076L108.181,-77.051L108.972,-82.155L109.508,-87.411L109.839,-90.983L109.839,-151.453C119.646,-156.217 129.099,-159.715 136.307,-160.046M77.255,-25.458L74.192,-22.345L71.054,-19.412L69.768,-18.271C59.201,-33.509 48.751,-47.947 46.918,-47.947C42.569,-47.946 39.281,-47.941 36.785,-47.935L36.785,-55.528L48.378,-55.528C51.017,-55.528 48.052,-64.801 49.689,-70.984C51.245,-76.841 57.192,-83.376 61.813,-86.652C63.32,-87.72 67.088,-89.345 71.47,-90.983L91.683,-90.983C90.72,-76.517 89.423,-50.057 82.688,-45.439C77.588,-41.938 66.816,-45.929 60.307,-45.224C59.711,-45.16 69.363,-37.072 80.047,-28.537L77.255,-25.458ZM88.36,16.085C85.653,17.365 81.222,18.813 79.541,18.813C76.343,18.667 64.511,9.041 56.058,0.532C55.229,-0.303 54.148,-0.765 53.017,-0.765C51.829,-0.765 50.695,-0.25 49.905,0.647C48.276,2.499 48.388,4.333 49.914,16.247C50.372,19.825 51.014,24.829 51.169,27.595C47.09,28.356 37.443,29.21 29.177,29.671C20.912,29.21 11.267,28.356 7.186,27.595C7.342,24.829 7.983,19.829 8.441,16.252C9.969,4.333 10.081,2.499 8.451,0.647C7.662,-0.25 6.528,-0.765 5.34,-0.765C4.208,-0.765 3.126,-0.302 2.295,0.537C-6.186,9.057 -17.913,18.664 -21.169,18.813C-22.862,18.813 -27.299,17.364 -30.008,16.084C-28.775,14.28 -27.067,11.753 -24.953,8.625C-21.586,3.643 -16.183,-4.35 -10.47,-12.645L-10.318,-12.522L-7.027,-10.073L-3.709,-7.751L-0.367,-5.581L3.001,-3.566L6.37,-1.678L9.712,0.032L13.029,1.588L16.347,3.017L19.612,4.267L22.802,5.39L25.966,6.36L28.977,7.137L28.977,7.15L29.002,7.144L29.028,7.15L29.028,7.137L32.039,6.36L35.203,5.39L38.394,4.267L41.659,3.017L44.976,1.588L48.293,0.032L51.662,-1.678L55.004,-3.566L58.372,-5.581L61.715,-7.751L65.032,-10.073L68.323,-12.522L68.674,-12.806C74.452,-4.433 79.931,3.656 83.334,8.682C85.435,11.785 87.133,14.293 88.36,16.085M21.45,-43.936L21.45,1.132L20.046,0.747L17.418,-0.147L14.663,-1.219L11.805,-2.495L8.845,-3.949L5.808,-5.608L2.721,-7.445L-0.393,-9.46L-3.557,-11.68L-6.746,-14.053L-8.508,-15.488C0.295,-28.214 9.363,-40.923 12.54,-43.947C16.307,-43.946 19.211,-43.942 21.45,-43.936M36.785,-43.935C39.032,-43.94 41.947,-43.944 45.75,-43.946C48.913,-40.928 57.926,-28.32 66.709,-15.647L64.752,-14.053L61.562,-11.68L58.398,-9.46L55.285,-7.445L52.197,-5.608L49.161,-3.949L46.201,-2.495L43.343,-1.219L40.587,-0.147L37.959,0.747L36.785,1.073L36.785,-43.935ZM-13.049,-19.412L-16.162,-22.345L-19.25,-25.458L-21.895,-28.374C-11.13,-36.968 -1.35,-45.159 -1.952,-45.224C-8.459,-45.929 -19.229,-41.938 -24.336,-45.439C-31.068,-50.057 -32.362,-76.517 -33.326,-90.983L-13.114,-90.983C-8.732,-89.345 -4.964,-87.72 -3.457,-86.652C1.163,-83.376 7.11,-76.841 8.664,-70.984C10.3,-64.801 7.337,-55.528 9.976,-55.528L21.45,-55.528L21.45,-47.936C18.973,-47.943 15.706,-47.947 11.384,-47.947C9.542,-47.976 -0.975,-33.418 -11.573,-18.104L-13.049,-19.412ZM-48.972,-12.999C-51.074,-11.745 -53.54,-11.109 -56.302,-11.109C-62.839,-11.109 -70.063,-14.655 -74.322,-18.169C-97.539,-37.33 -105.142,-82.315 -105.908,-93.313C-107.528,-116.742 -104.741,-128.268 -101.487,-138.948C-99.977,-143.902 -93.888,-160.069 -78.971,-160.069C-78.637,-160.069 -78.297,-160.061 -77.954,-160.046C-70.774,-159.716 -61.369,-156.246 -51.604,-151.512L-51.604,-90.983L-51.502,-87.411L-50.967,-82.155L-50.176,-77.051L-49.155,-72.076L-47.93,-67.279L-46.476,-62.583L-44.843,-58.067L-43.005,-53.679L-40.989,-49.443L-38.82,-45.361L-36.473,-41.406L-33.998,-37.604L-31.395,-33.955L-28.665,-30.459L-27.481,-29.052C-36.309,-22.047 -45.22,-15.239 -48.972,-12.999M21.45,-104.71L-47.803,-104.71L-47.803,-149.62C-40.283,-145.77 -32.699,-141.321 -25.872,-137.103L-27.372,-135.595L-26.326,-135.595L-26.326,-132.839L-23.639,-135.715C-20.366,-133.669 -17.299,-131.704 -14.542,-129.916L-18.391,-125.797L-16.324,-125.797L-16.324,-124.445L-12.331,-128.48C-11.454,-127.908 -10.604,-127.354 -9.808,-126.834C-7.614,-125.402 -5.859,-124.261 -4.407,-123.331L-4.407,-122.735L-4.331,-122.531L-4.229,-122.352L-4.101,-122.199L-3.948,-122.072L-3.795,-121.995L-3.591,-121.919L-3.387,-121.893L-2.122,-121.893C1.069,-119.931 2.081,-119.579 3.288,-119.579L3.292,-119.579C5.613,-119.58 7.432,-121.388 7.432,-123.693C7.432,-124.379 7.284,-126.564 7.042,-129.573L7.917,-129.573L8.122,-129.599L8.326,-129.65L8.504,-129.752L8.657,-129.88L8.785,-130.033L8.887,-130.211L8.938,-130.39L8.963,-130.62L8.963,-134.166L8.938,-134.371L8.887,-134.549L8.785,-134.727L8.657,-134.881L8.504,-135.008L8.326,-135.11L8.122,-135.161L7.917,-135.187L6.692,-135.187L6.568,-135.173C6.217,-139.134 5.792,-143.617 5.356,-147.816C5.037,-150.896 4.744,-153.579 4.469,-155.931L10.622,-155.931L10.622,-162.31L7.994,-162.31L7.994,-159.248L4.067,-159.248C3.952,-160.152 3.841,-161 3.732,-161.785L3.732,-162.31L3.658,-162.31C3.397,-164.161 3.151,-165.685 2.914,-166.928L3.732,-166.928L3.732,-169.99L7.994,-169.99L7.994,-166.928L10.622,-166.928L10.622,-173.307L0.415,-173.307L0.415,-172.945C0.292,-173.027 0.165,-173.102 0.033,-173.176L0.033,-173.767L-1.477,-173.767C-2.999,-174.078 -6.582,-174.358 -17.752,-175.078L-17.752,-175.425L-21.069,-175.425L-21.069,-175.29C-21.207,-175.299 -21.335,-175.308 -21.474,-175.316C-28.753,-175.78 -38.278,-176.388 -47.803,-177.108L-47.803,-195.326L-45.94,-194.806L-40.403,-193.326L-34.942,-191.948L-29.583,-190.646L-24.327,-189.473L-19.122,-188.401L-13.993,-187.432L-8.94,-186.539L-3.965,-185.773L0.985,-185.11L5.885,-184.523L10.733,-184.063L15.555,-183.706L20.378,-183.451L21.45,-183.411L21.45,-104.71ZM-37.136,-87.945C-35.706,-65.858 -33.926,-47.166 -26.599,-42.14C-24.477,-40.686 -21.719,-39.98 -18.165,-39.98C-16.676,-39.98 -15.146,-40.098 -13.615,-40.264C-16.791,-37.642 -20.577,-34.565 -24.499,-31.427L-25.169,-32.22L-27.976,-35.87L-30.706,-39.697L-33.284,-43.677L-35.733,-47.835L-38.004,-52.173L-40.122,-56.69L-42.036,-61.359L-43.745,-66.181L-45.225,-71.182L-46.476,-76.336L-47.471,-81.669L-47.993,-87.178L-48.076,-90.983L-37.334,-90.983C-37.271,-90.022 -37.205,-89.01 -37.136,-87.945M12.53,-72.007C10.688,-78.956 4.15,-86.162 -1.144,-89.914C-1.596,-90.236 -2.211,-90.595 -2.952,-90.983L21.45,-90.983L21.45,-59.528L12.866,-59.528C12.896,-60.106 12.938,-60.716 12.974,-61.249C13.193,-64.466 13.466,-68.47 12.53,-72.007M61.308,-90.983C60.567,-90.595 59.952,-90.236 59.5,-89.914C54.207,-86.163 47.669,-78.96 45.823,-72.01C44.886,-68.469 45.159,-64.464 45.379,-61.247C45.415,-60.714 45.457,-60.105 45.487,-59.528L36.785,-59.528L36.785,-90.983L61.308,-90.983ZM82.646,-31.594C78.798,-34.673 75.091,-37.688 71.971,-40.264C73.502,-40.098 75.032,-39.98 76.521,-39.98C80.075,-39.98 82.833,-40.687 84.951,-42.141C92.284,-47.169 94.065,-65.876 95.495,-87.983C95.563,-89.035 95.628,-90.034 95.691,-90.983L106.502,-90.983L106.19,-87.155L105.477,-81.669L104.481,-76.336L103.231,-71.182L101.751,-66.181L100.041,-61.359L98.128,-56.69L96.01,-52.173L93.738,-47.835L91.289,-43.677L88.712,-39.697L86.007,-35.87L83.175,-32.22L82.646,-31.594ZM55.308,-125.759L56.277,-125.172L57.257,-124.62C55.753,-123.738 54.922,-123.374 54.922,-123.693C54.922,-124.003 54.966,-124.788 55.047,-125.942L55.308,-125.759ZM106.063,-177.101C96.57,-176.384 87.085,-175.779 79.829,-175.316C78.196,-175.212 76.708,-175.117 75.329,-175.028L74.879,-175.131L74.216,-175.233L73.552,-175.335L72.914,-175.412L72.226,-175.437L71.512,-175.463L69.954,-175.463L69.087,-175.412L68.117,-175.335L67.097,-175.233L65.948,-175.131L64.825,-174.902L63.703,-174.646L62.605,-174.34L61.627,-174.022C59.435,-173.785 59.091,-173.598 58.52,-173.285C57.963,-172.977 57.486,-172.71 57.041,-172.045L56.329,-171.662L55.359,-171.075L54.39,-170.436L53.471,-169.773L52.604,-169.084L51.735,-168.319L50.894,-167.553L50.103,-166.711L49.362,-165.869L48.623,-164.951L47.959,-164.032L47.296,-163.037L46.709,-162.017L46.147,-160.97L45.637,-159.873L45.178,-158.75L44.744,-157.577L44.387,-156.352L44.081,-155.102L43.8,-153.826L43.596,-152.499L43.468,-151.147L43.366,-149.743L43.341,-148.288L43.366,-146.988L43.468,-145.686L43.596,-144.385L43.8,-143.135L44.081,-141.91L44.387,-140.711L44.744,-139.512L45.178,-138.363L45.637,-137.241L46.147,-136.143L46.709,-135.072L47.296,-134.051L47.934,-133.056L48.623,-132.086L49.337,-131.168L50.103,-130.275L50.894,-129.408L51.27,-129.043C51.053,-126.309 50.922,-124.338 50.922,-123.693C50.922,-122.432 51.484,-121.26 52.465,-120.479C53.193,-119.898 54.116,-119.579 55.064,-119.579L55.068,-119.579C56.437,-119.58 57.549,-120.029 61.882,-122.772L62.504,-122.595L63.601,-122.339L64.698,-122.161L65.821,-122.034L67.429,-121.931L69.011,-121.855L69.776,-121.855L70.567,-121.88L71.332,-121.906L72.098,-121.957L72.864,-122.034L73.654,-122.135L74.445,-122.263L75.236,-122.442L76.054,-122.621L76.87,-122.85L77.712,-123.105L78.579,-123.412L76.002,-124.202L73.604,-125.146L71.358,-126.218L69.266,-127.443L69.184,-127.501C71.753,-129.178 74.713,-131.102 77.951,-133.164L80.621,-128.336L86.925,-138.757C86.946,-138.77 86.968,-138.784 86.99,-138.797L97.691,-138.797L95.152,-143.623C98.742,-145.683 102.409,-147.699 106.063,-149.572L106.063,-104.71L36.785,-104.71L36.785,-183.34L39.439,-183.426L44.211,-183.681L48.982,-184.038L53.779,-184.497L58.628,-185.059L63.476,-185.722L68.375,-186.487L73.325,-187.355L78.326,-188.35L83.404,-189.422L88.533,-190.621L93.738,-191.897L99.021,-193.3L104.379,-194.78L106.063,-195.276L106.063,-177.101ZM-47.803,-173.091C-42.354,-172.681 -36.86,-172.306 -31.659,-171.964L-31.659,-166.928L-29.031,-166.928L-29.031,-169.99L-24.77,-169.99L-24.77,-166.928L-21.452,-166.928L-21.452,-171.307C-21.325,-171.299 -21.196,-171.29 -21.069,-171.283L-21.069,-143.632L-17.752,-143.632L-17.752,-171.07C-10.857,-170.628 -5.567,-170.27 -3.285,-169.996L-3.285,-143.632L0.033,-143.632L0.033,-159.15C0.16,-158.165 0.288,-157.135 0.415,-156.075L0.415,-155.931L0.433,-155.931C1.039,-150.863 1.631,-145.086 2.126,-139.826L1.538,-140.417L1.538,-139.065L-0.529,-139.065L2.494,-135.83C2.701,-133.527 2.881,-131.407 3.027,-129.602L-0.529,-125.797L1.538,-125.797L1.538,-124.445L3.289,-126.204C3.381,-124.91 3.432,-124.025 3.432,-123.693C3.432,-123.374 2.604,-123.736 1.106,-124.614L1.028,-124.751L0.9,-124.904L0.747,-125.032L0.568,-125.134L0.364,-125.185L0.16,-125.21L0.115,-125.21C-1.32,-126.089 -3.174,-127.285 -5.379,-128.721L-8.464,-132.023L-8.464,-130.734C-8.617,-130.833 -8.77,-130.933 -8.924,-131.034L-8.924,-134.166L-8.949,-134.371L-9,-134.549L-9.103,-134.727L-9.23,-134.881L-9.383,-135.008L-9.562,-135.11L-9.74,-135.161L-9.944,-135.187L-11.195,-135.187L-11.399,-135.161L-11.603,-135.11L-11.782,-135.008L-11.935,-134.881L-12.062,-134.727L-12.139,-134.549L-12.215,-134.371L-12.215,-133.176C-12.334,-133.253 -12.453,-133.33 -12.573,-133.408L-12.573,-135.595L-11.552,-135.595L-16.324,-140.417L-16.324,-139.065L-18.391,-139.065L-13.915,-134.276C-16.095,-135.683 -18.417,-137.169 -20.852,-138.698L-20.508,-139.065L-21.439,-139.065C-21.815,-139.301 -22.193,-139.538 -22.575,-139.775L-22.575,-140.417L-22.97,-140.02C-30.66,-144.798 -39.288,-149.866 -47.803,-154.113L-47.803,-173.091ZM-3.38,-207.823C-0.575,-204.948 -62.493,-206.682 -63.691,-206.508C-64.893,-206.337 -90.424,-179.464 -87.702,-178.247C-83.344,-176.296 -68.071,-174.68 -51.604,-173.383L-51.604,-155.958C-61.192,-160.467 -70.428,-163.705 -77.771,-164.041C-96.509,-164.9 -103.657,-145.548 -105.313,-140.114C-108.306,-130.293 -111.629,-118.076 -109.898,-93.036C-109.081,-81.29 -101.182,-35.15 -76.868,-15.084C-70.547,-9.869 -57.027,-3.534 -46.921,-9.565C-43.159,-11.811 -33.958,-18.813 -24.85,-26.024L-22.873,-23.876L-19.836,-20.815L-16.723,-17.906L-13.592,-15.179C-23.792,-0.367 -33.561,14.334 -35.182,16.51C-36.63,18.455 -24.624,22.972 -20.985,22.809C-14.396,22.505 3.041,5.458 5.138,3.351C7.232,1.236 1.935,28.721 3.432,30.532C4.933,32.341 29.177,33.677 29.177,33.677C29.177,33.677 53.43,32.341 54.922,30.532C56.422,28.721 51.123,1.236 53.22,3.351C55.313,5.458 72.748,22.505 79.34,22.809C82.982,22.972 94.985,18.455 93.535,16.51C91.907,14.325 82.05,-0.478 71.79,-15.347L74.729,-17.906L77.842,-20.815L80.878,-23.876L83.003,-26.184C92.176,-18.916 101.484,-11.828 105.275,-9.565C115.386,-3.534 128.903,-9.869 135.227,-15.084C159.54,-35.15 167.437,-81.29 168.251,-93.036C169.986,-118.076 165.218,-134.066 163.565,-140.114C162.084,-145.529 154.864,-164.9 136.123,-164.041C128.752,-163.704 119.47,-160.439 109.839,-155.9L109.839,-173.374C126.352,-174.672 141.687,-176.292 146.056,-178.247C148.778,-179.464 123.25,-206.337 122.052,-206.508C120.854,-206.682 58.931,-204.948 61.741,-207.823C62.701,-208.806 68.674,-231.882 60.307,-237.739C51.849,-243.653 31.23,-243.082 29.177,-243.082C27.124,-243.082 6.503,-243.653 -1.952,-237.739C-10.316,-231.882 -4.342,-208.806 -3.38,-207.823" style="fill:black;fill-rule:nonzero;"/>
            </g>
            <g transform="matrix(1,0,0,1,251.207,370.247)">
                <path d="M0,-6.379L-3.317,-6.379L-3.317,-3.317L-7.579,-3.317L-7.579,-6.379L-10.207,-6.379L-10.207,0L0,0L0,-6.379Z" style="fill:black;fill-rule:nonzero;"/>
            </g>
            <g transform="matrix(1,0,0,1,250.875,386.475)">
                <path d="M0,-2.96L-0.153,-2.833L-0.281,-2.679L-0.383,-2.501L-0.434,-2.296L-0.459,-2.092L-0.459,-0.868L-0.434,-0.638L-0.383,-0.46L-0.281,-0.281L-0.153,-0.127L0,0L0.179,0.102L0.357,0.153L0.562,0.179L4.134,0.179L4.338,0.153L4.517,0.102L4.695,0L4.848,-0.127L4.976,-0.281L5.078,-0.46L5.129,-0.638L5.154,-0.868L5.154,-2.092L5.129,-2.296L5.078,-2.501L4.976,-2.679L4.848,-2.833L4.695,-2.96L4.517,-3.037L4.338,-3.113L4.134,-3.139L0.562,-3.139L0.357,-3.113L0.179,-3.037L0,-2.96Z" style="fill:black;fill-rule:nonzero;"/>
            </g>
            <g transform="matrix(1,0,0,1,255.953,403.647)">
                <path d="M0,-2.041L-0.102,-2.22L-0.229,-2.373L-0.382,-2.5L-0.561,-2.603L-0.74,-2.654L-0.944,-2.679L-4.516,-2.679L-4.72,-2.654L-4.899,-2.603L-5.078,-2.5L-5.231,-2.373L-5.358,-2.22L-5.46,-2.041L-5.511,-1.863L-5.537,-1.659L-5.537,-0.408L-5.511,-0.204L-5.46,0L-5.358,0.179L-5.231,0.332L-5.078,0.459L-4.899,0.536L-4.72,0.612L-4.516,0.638L-0.944,0.638L-0.74,0.612L-0.561,0.536L-0.382,0.459L-0.229,0.332L-0.102,0.179L0,0L0.051,-0.204L0.077,-0.408L0.077,-1.659L0.051,-1.863L0,-2.041Z" style="fill:black;fill-rule:nonzero;"/>
            </g>
            <g transform="matrix(1,0,0,1,245.517,391.17)">
                <path d="M0,5.256L0.153,5.128L0.281,4.975L0.383,4.797L0.434,4.618L0.459,4.388L0.459,0.841L0.434,0.637L0.383,0.459L0.281,0.28L0.153,0.127L0,0L-0.179,-0.102L-0.383,-0.153L-0.587,-0.179L-1.812,-0.179L-2.016,-0.153L-2.22,-0.102L-2.398,0L-2.552,0.127L-2.679,0.28L-2.781,0.459L-2.833,0.637L-2.858,0.841L-2.858,4.388L-2.833,4.618L-2.781,4.797L-2.679,4.975L-2.552,5.128L-2.398,5.256L-2.22,5.358L-2.016,5.409L-1.812,5.435L-0.587,5.435L-0.383,5.409L-0.179,5.358L0,5.256Z" style="fill:black;fill-rule:nonzero;"/>
            </g>
            <g transform="matrix(1,0,0,1,246.333,401.733)">
                <path d="M0,-7.578L0,-4.822L-1.046,-4.822L3.751,0L3.751,-1.352L5.818,-1.352L0,-7.578Z" style="fill:black;fill-rule:nonzero;"/>
            </g>
            <g transform="matrix(1,0,0,1,0,-139.312)">
                <rect x="269.375" y="490.065" width="3.317" height="1.072" style="fill:black;"/>
            </g>
            <g transform="matrix(1,0,0,1,268.431,383.795)">
                <path d="M0,2.399L0.127,2.552L0.281,2.68L0.434,2.782L0.638,2.833L0.842,2.858L4.389,2.858L4.593,2.833L4.797,2.782L4.976,2.68L5.129,2.552L5.256,2.399L5.358,2.22L5.41,2.042L5.435,1.812L5.435,0.587L5.41,0.383L5.358,0.179L5.256,0.001L5.129,-0.153L4.976,-0.28L4.797,-0.357L4.593,-0.433L4.389,-0.459L0.842,-0.459L0.638,-0.433L0.434,-0.357L0.281,-0.28L0.127,-0.153L0,0.001L-0.102,0.179L-0.179,0.383L-0.179,2.042L-0.102,2.22L0,2.399Z" style="fill:black;fill-rule:nonzero;"/>
            </g>
            <g transform="matrix(1,0,0,1,264.195,385.761)">
                <path d="M0,7.578L5.818,1.352L3.751,1.352L3.751,0L-1.046,4.822L0,4.822L0,7.578Z" style="fill:black;fill-rule:nonzero;"/>
            </g>
        </g>
        <g transform="matrix(1,0,0,1,5,44)">
            <g id="_-DEUTSCHE-PFADFINDERSCHAFT-" serif:id="(DEUTSCHE PFADFINDERSCHAFT)">
                <g transform="matrix(-0.639339,-0.768925,0.768925,-0.639339,-416.098,4186.46)">
                    <text x="773.772px" y="2190.82px" style="font-family:'ArialMT', 'Arial', sans-serif;font-size:100px;fill:black;">D</text>
                </g>
                <g transform="matrix(-0.554008,-0.832511,0.832511,-0.554008,-647.481,3920.25)">
                    <text x="726.333px" y="2133.56px" style="font-family:'ArialMT', 'Arial', sans-serif;font-size:100px;fill:black;">E</text>
                </g>
                <g transform="matrix(-0.464827,-0.885401,0.885401,-0.464827,-830.386,3651.14)">
                    <text x="688.255px" y="2076.53px" style="font-family:'ArialMT', 'Arial', sans-serif;font-size:100px;fill:black;">U</text>
                </g>
                <g transform="matrix(-0.372018,-0.928225,0.928225,-0.372018,-968.877,3365.69)">
                    <text x="654.073px" y="2010.59px" style="font-family:'ArialMT', 'Arial', sans-serif;font-size:100px;fill:black;">T</text>
                </g>
                <g transform="matrix(-0.280435,-0.959873,0.959873,-0.280435,-1066.24,3104.56)">
                    <text x="630.541px" y="1951.93px" style="font-family:'ArialMT', 'Arial', sans-serif;font-size:100px;fill:black;">S</text>
                </g>
                <g transform="matrix(-0.17664,-0.984276,0.984276,-0.17664,-1137.15,2820.77)">
                    <text x="611.233px" y="1886.01px" style="font-family:'ArialMT', 'Arial', sans-serif;font-size:100px;fill:black;">C</text>
                </g>
                <g transform="matrix(-0.0697568,-0.997564,0.997564,-0.0697568,-1168.51,2536.06)">
                    <text x="598.202px" y="1812.86px" style="font-family:'ArialMT', 'Arial', sans-serif;font-size:100px;fill:black;">H</text>
                </g>
                <g transform="matrix(0.0351101,-0.999383,0.999383,0.0351101,-1165.22,2270.48)">
                    <text x="593.213px" y="1738.67px" style="font-family:'ArialMT', 'Arial', sans-serif;font-size:100px;fill:black;">E</text>
                </g>
                <g transform="matrix(0.178533,-0.983934,0.983934,0.178533,-1122.03,1936.51)">
                    <text x="598.742px" y="1640.23px" style="font-family:'ArialMT', 'Arial', sans-serif;font-size:100px;fill:black;">P</text>
                </g>
                <g transform="matrix(0.27329,-0.961932,0.961932,0.27329,-1068.74,1730.67)">
                    <text x="611.059px" y="1572.67px" style="font-family:'ArialMT', 'Arial', sans-serif;font-size:100px;fill:black;">F</text>
                </g>
                <g transform="matrix(0.355648,-0.93462,0.93462,0.355648,-1014.27,1563.08)">
                    <text x="626.474px" y="1517.13px" style="font-family:'ArialMT', 'Arial', sans-serif;font-size:100px;fill:black;">A</text>
                </g>
                <g transform="matrix(0.454182,-0.890909,0.890909,0.454182,-939.03,1372.8)">
                    <text x="650.861px" y="1452.77px" style="font-family:'ArialMT', 'Arial', sans-serif;font-size:100px;fill:black;">D</text>
                </g>
                <g transform="matrix(0.543116,-0.839658,0.839658,0.543116,-851.544,1208.56)">
                    <text x="684.771px" y="1386.76px" style="font-family:'ArialMT', 'Arial', sans-serif;font-size:100px;fill:black;">F</text>
                </g>
                <g transform="matrix(0.597765,-0.801672,0.801672,0.597765,-780.088,1113.42)">
                    <text x="719.506px" y="1334.09px" style="font-family:'ArialMT', 'Arial', sans-serif;font-size:100px;fill:black;">I</text>
                </g>
                <g transform="matrix(0.657436,-0.75351,0.75351,0.657436,-734.506,1003.79)">
                    <text x="736.72px" y="1309.71px" style="font-family:'ArialMT', 'Arial', sans-serif;font-size:100px;fill:black;">N</text>
                </g>
                <g transform="matrix(0.738434,-0.674326,0.674326,0.738434,-639.915,857.719)">
                    <text x="785.657px" y="1253.72px" style="font-family:'ArialMT', 'Arial', sans-serif;font-size:100px;fill:black;">D</text>
                </g>
                <g transform="matrix(0.806691,-0.590973,0.590973,0.806691,-548.914,729.43)">
                    <text x="840.53px" y="1203.77px" style="font-family:'ArialMT', 'Arial', sans-serif;font-size:100px;fill:black;">E</text>
                </g>
                <g transform="matrix(0.867745,-0.49701,0.49701,0.867745,-459.46,599.058)">
                    <text x="895.888px" y="1162.85px" style="font-family:'ArialMT', 'Arial', sans-serif;font-size:100px;fill:black;">R</text>
                </g>
                <g transform="matrix(0.914795,-0.403919,0.403919,0.914795,-373.013,483.829)">
                    <text x="960.297px" y="1126.06px" style="font-family:'ArialMT', 'Arial', sans-serif;font-size:100px;fill:black;">S</text>
                </g>
                <g transform="matrix(0.954412,-0.298492,0.298492,0.954412,-281.148,355.513)">
                    <text x="1023.31px" y="1098.18px" style="font-family:'ArialMT', 'Arial', sans-serif;font-size:100px;fill:black;">C</text>
                </g>
                <g transform="matrix(0.982332,-0.187147,0.187147,0.982332,-182.064,223.774)">
                    <text x="1094.11px" y="1076.13px" style="font-family:'ArialMT', 'Arial', sans-serif;font-size:100px;fill:black;">H</text>
                </g>
                <g transform="matrix(0.997033,-0.0769771,0.0769771,0.997033,-78.3245,92.9971)">
                    <text x="1167.16px" y="1062.49px" style="font-family:'ArialMT', 'Arial', sans-serif;font-size:100px;fill:black;">A</text>
                </g>
                <g transform="matrix(0.999638,0.0269155,-0.0269155,0.999638,28.9072,-32.8779)">
                    <text x="1235.76px" y="1057.37px" style="font-family:'ArialMT', 'Arial', sans-serif;font-size:100px;fill:black;">F</text>
                </g>
                <g transform="matrix(0.99259,0.121516,-0.121516,0.99259,138.317,-149.98)">
                    <text x="1298.83px" y="1059.06px" style="font-family:'ArialMT', 'Arial', sans-serif;font-size:100px;fill:black;">T</text>
                </g>
                <g transform="matrix(0.964429,0.264344,-0.264344,0.964429,332.819,-329.051)">
                    <text x="1389.06px" y="1072.12px" style="font-family:'ArialMT', 'Arial', sans-serif;font-size:100px;fill:black;">S</text>
                </g>
                <g transform="matrix(0.931956,0.36257,-0.36257,0.931956,494.417,-453.43)">
                    <text x="1455.26px" y="1090.54px" style="font-family:'ArialMT', 'Arial', sans-serif;font-size:100px;fill:black;">T</text>
                </g>
                <g transform="matrix(0.910676,0.413121,-0.413121,0.910676,592.699,-522.076)">
                    <text x="1503.64px" y="1109.57px" style="font-family:'ArialMT', 'Arial', sans-serif;font-size:100px;fill:black;">.</text>
                </g>
                <g transform="matrix(0.849981,0.526813,-0.526813,0.849981,831.422,-650.416)">
                    <text x="1557.73px" y="1134.62px" style="font-family:'ArialMT', 'Arial', sans-serif;font-size:100px;fill:black;">G</text>
                </g>
                <g transform="matrix(0.783549,0.62133,-0.62133,0.783549,1083.2,-755.175)">
                    <text x="1625.48px" y="1177.1px" style="font-family:'ArialMT', 'Arial', sans-serif;font-size:100px;fill:black;">E</text>
                </g>
                <g transform="matrix(0.710693,0.703502,-0.703502,0.710693,1343.87,-828.693)">
                    <text x="1679.5px" y="1219.59px" style="font-family:'ArialMT', 'Arial', sans-serif;font-size:100px;fill:black;">O</text>
                </g>
                <g transform="matrix(0.621757,0.78321,-0.78321,0.621757,1655.93,-877.221)">
                    <text x="1736.17px" y="1275.82px" style="font-family:'ArialMT', 'Arial', sans-serif;font-size:100px;fill:black;">R</text>
                </g>
                <g transform="matrix(0.533071,0.846071,-0.846071,0.533071,1960.83,-885.301)">
                    <text x="1782.5px" y="1333.86px" style="font-family:'ArialMT', 'Arial', sans-serif;font-size:100px;fill:black;">G</text>
                </g>
                <g transform="matrix(0.396394,0.918081,-0.918081,0.396394,2420.9,-825.761)">
                    <text x="1838.44px" y="1428.2px" style="font-family:'ArialMT', 'Arial', sans-serif;font-size:100px;fill:black;">S</text>
                </g>
                <g transform="matrix(0.304281,0.952582,-0.952582,0.304281,2718.47,-739.414)">
                    <text x="1865.44px" y="1491.37px" style="font-family:'ArialMT', 'Arial', sans-serif;font-size:100px;fill:black;">T</text>
                </g>
                <g transform="matrix(0.221052,0.975262,-0.975262,0.221052,2972.73,-633.184)">
                    <text x="1882.75px" y="1544.38px" style="font-family:'ArialMT', 'Arial', sans-serif;font-size:100px;fill:black;">A</text>
                </g>
                <g transform="matrix(0.109843,0.993949,-0.993949,0.109843,3291.29,-452.487)">
                    <text x="1898.27px" y="1611.28px" style="font-family:'ArialMT', 'Arial', sans-serif;font-size:100px;fill:black;">M</text>
                </g>
                <g transform="matrix(-0.0133895,0.99991,-0.99991,-0.0133895,3629.15,-188.349)">
                    <text x="1907.49px" y="1696.26px" style="font-family:'ArialMT', 'Arial', sans-serif;font-size:100px;fill:black;">M</text>
                </g>
                <g transform="matrix(-0.17323,0.984881,-0.984881,-0.17323,4016.61,250.782)">
                    <text x="1903.04px" y="1811.29px" style="font-family:'ArialMT', 'Arial', sans-serif;font-size:100px;fill:black;">K</text>
                </g>
                <g transform="matrix(-0.274757,0.961514,-0.961514,-0.274757,4220.39,582.982)">
                    <text x="1890.33px" y="1883.15px" style="font-family:'ArialMT', 'Arial', sans-serif;font-size:100px;fill:black;">E</text>
                </g>
                <g transform="matrix(-0.380761,0.924673,-0.924673,-0.380761,4387.17,961.04)">
                    <text x="1871.79px" y="1949.53px" style="font-family:'ArialMT', 'Arial', sans-serif;font-size:100px;fill:black;">M</text>
                </g>
                <g transform="matrix(-0.485888,0.874021,-0.874021,-0.485888,4505.01,1406.52)">
                    <text x="1838.84px" y="2028.22px" style="font-family:'ArialMT', 'Arial', sans-serif;font-size:100px;fill:black;">P</text>
                </g>
                <g transform="matrix(-0.571839,0.820366,-0.820366,-0.571839,4551.1,1801.39)">
                    <text x="1805.47px" y="2088.34px" style="font-family:'ArialMT', 'Arial', sans-serif;font-size:100px;fill:black;">E</text>
                </g>
                <g transform="matrix(-0.65393,0.756555,-0.756555,-0.65393,4543.85,2211.17)">
                    <text x="1766.2px" y="2144.83px" style="font-family:'ArialMT', 'Arial', sans-serif;font-size:100px;fill:black;">N</text>
                </g>
                <g transform="matrix(0.945057,0.326906,-0.326906,0.945057,804.197,-141.458)">
                    <text x="1008.86px" y="2352.96px" style="font-family:'ArialMT', 'Arial', sans-serif;font-size:100px;fill:black;">S</text>
                </g>
                <g transform="matrix(0.975237,0.22116,-0.22116,0.975237,538.123,-117.756)">
                    <text x="1074.02px" y="2375.43px" style="font-family:'ArialMT', 'Arial', sans-serif;font-size:100px;fill:black;">E</text>
                </g>
                <g transform="matrix(0.989044,0.147619,-0.147619,0.989044,356.063,-80.4358)">
                    <text x="1141px" y="2389.85px" style="font-family:'ArialMT', 'Arial', sans-serif;font-size:100px;fill:black;">I</text>
                </g>
                <g transform="matrix(0.99711,0.0759704,-0.0759704,0.99711,180.567,-19.6784)">
                    <text x="1170.44px" y="2394.79px" style="font-family:'ArialMT', 'Arial', sans-serif;font-size:100px;fill:black;">T</text>
                </g>
                <g transform="matrix(0.998552,-0.0537924,0.0537924,0.998552,-123.878,133.744)">
                    <text x="1261.54px" y="2399.35px" style="font-family:'ArialMT', 'Arial', sans-serif;font-size:100px;fill:black;">1</text>
                </g>
                <g transform="matrix(0.988985,-0.148017,0.148017,0.988985,-330.866,283.432)">
                    <text x="1318.96px" y="2395.99px" style="font-family:'ArialMT', 'Arial', sans-serif;font-size:100px;fill:black;">9</text>
                </g>
                <g transform="matrix(0.972293,-0.233765,0.233765,0.972293,-505.328,448.569)">
                    <text x="1375.99px" y="2387.28px" style="font-family:'ArialMT', 'Arial', sans-serif;font-size:100px;fill:black;">4</text>
                </g>
                <g transform="matrix(0.946714,-0.322074,0.322074,0.946714,-668.055,646.838)">
                    <text x="1431.93px" y="2373.63px" style="font-family:'ArialMT', 'Arial', sans-serif;font-size:100px;fill:black;">6</text>
                </g>
            </g>
        </g>
    </g>
</svg>
